<?xml version="1.0" encoding="UTF-8" standalone="no"?><!DOCTYPE svg PUBLIC "-//W3C//DTD SVG 1.1//EN" "http://www.w3.org/Graphics/SVG/1.1/DTD/svg11.dtd"><svg width="100%" height="100%" viewBox="0 0 2162 883" version="1.1" xmlns="http://www.w3.org/2000/svg" xmlns:xlink="http://www.w3.org/1999/xlink" xml:space="preserve" xmlns:serif="http://www.serif.com/" style="fill-rule:evenodd;clip-rule:evenodd;stroke-linejoin:round;stroke-miterlimit:2;"><rect id="Horizontal-Lockup" serif:id="Horizontal Lockup" x="0" y="0" width="2161.567" height="882.157" style="fill:none;"/><g id="NakedPineapple_Logo_Horizontal_Lockup"><path d="M219.103,744.405c23.919,-16.794 32.376,-21.357 55.588,-18.437c6.434,0.809 6.087,-14.877 6.367,-18.948c0.551,-7.995 -24.37,-4.532 -32.227,-12.478c-11.307,-11.435 28.873,-102.196 -19.281,-150.54c-44.905,-45.083 -102.229,4.391 -105.432,27.69c-3.253,23.662 1.955,23.833 9.563,27.228c57.208,25.525 103.475,3.776 92.819,25.377c-2.769,5.614 -54.025,8.129 -97.657,-11.324c-5.481,-2.444 -4.648,1.305 -3.936,7.152c2.625,21.559 9.596,84.534 45.914,138.006c37.844,55.719 82.793,61.289 87.686,62.447c10.574,2.504 7.766,10.927 3.987,13.588c-6.148,4.328 -35.425,-6.924 -45.827,-12.898c-84.844,-48.726 -102.494,-149.835 -107.959,-215.299c-0.677,-8.107 -36.757,-30.347 -27.22,-41.838c7.744,-9.332 15.909,6.871 19.65,11.275c12.225,14.391 4.308,-7.051 16.448,-44.091c44.793,-136.666 150.15,-112.143 135.979,-126.696c-46.795,-48.054 -108.672,-138.074 -197.684,-191.973c-16.464,-9.969 -2.026,-16.001 10.66,-15.512c129.247,4.982 200.556,112.842 211.03,194.418c1.568,12.212 0.177,19.357 11.483,14.522c4.568,-1.953 -6.112,-55.173 -7.785,-123.593c-0.411,-16.79 -2.918,-119.322 28.481,-207.997c29.18,-82.41 39.187,31.361 37.985,121.087c-1.061,79.131 -3.804,83.14 -12.383,121.279c-19.432,86.388 -22.651,88.985 -17.841,90.228c11.267,2.912 10.776,-1.172 12.335,-7.204c27.022,-104.595 136.529,-183.081 226.013,-168.486c30.462,4.969 17.218,16.888 15.545,17.765c-67.31,35.288 -106.012,58.947 -218.948,161.523c-12.603,11.447 69.049,5.424 120.07,108.468c5.564,11.237 -6.227,3.125 -18.898,-13.014c-49.928,-63.594 -88.857,0.594 -98.969,11.974c-9.647,10.857 -31.684,17.956 -44.385,3.732c-70.712,-79.186 -162.579,-12.441 -174.855,3.336c-4.22,5.424 -1.027,8.186 1.738,5.755c5.354,-4.705 42.775,-37.595 88.625,-9.13c62.946,39.079 39.28,135.682 36.25,156.848c-1.192,8.327 8.371,7.665 14.702,8.538c10.99,1.516 3.821,-10.206 16.484,-18.117c26.154,-16.342 53.433,33.635 11.849,35.472c-11.817,0.522 -9.823,4.819 -10.451,16.665c-0.567,10.688 16.057,-10.359 44.613,20.392c14.39,15.496 15.658,14.274 16.503,15.901c8.382,16.147 -20.775,7.812 -36.552,9.747c-34.366,4.215 -34.315,2.054 -68.745,-2.296c-0.423,-0.053 -7.245,-0.576 -0.661,5.29c23.466,20.905 37.871,27.552 65.61,16.155c6.958,-2.859 19.953,10.219 -4.121,18.036c-49.256,15.992 -88.948,-43.664 -89.579,-44.105c-7.976,-5.579 -7.844,-7.583 -2.582,-15.918l73.075,0.046c-13.496,5.575 -12.967,-5.803 -27.514,-4.768c-14.244,1.013 -28.021,8.962 -20.346,10.018c58.345,8.029 86.948,3.924 80.495,-1.851c-20.097,-17.987 -32.27,-3.637 -32.635,-3.399l-73.075,-0.046Z" style="fill:currentColor;fill-opacity:0.99;"/><path d="M1798.249,249.067c19.726,21.912 17.089,24.825 17.089,124.399c0,117.119 1.406,118.989 -3.924,121.624c-0.708,0.35 -48.136,6.152 -51.523,-4.062c-0.812,-2.447 0.557,-13.682 -4.621,-9.44c-79.759,65.345 -180.41,-50.7 -114.979,-135.716c24.644,-32.021 75.444,-48.507 109.988,-32.382c5.57,2.6 8.628,5.481 8.686,-0.631c0.6,-63.288 -5.798,-79.57 13.701,-76.048c14.339,2.59 13.735,4.028 25.582,12.257l-48.481,218.425c0.821,-0.783 8.096,-7.722 8.731,-11.179c1.631,-8.881 0.812,-89.243 0.733,-97.004c-0.163,-15.967 -15.95,-46.509 -44.84,-35.872c-55.791,20.542 -48.048,197.118 35.376,144.055l48.481,-218.425Z" style="fill:currentColor;fill-opacity:0.99;"/><path d="M1597.982,562.283c64.138,93.775 -23.405,188.082 -97.823,160.229c-8.821,-3.301 -12.265,-8.114 -12.472,-1.349c-2.007,65.629 7.218,76.531 -12.054,76.711c-40.013,0.374 -44.015,0.161 -44.463,-9.987c-1.497,-33.937 -0.016,-199.002 0.14,-216.306c0.251,-27.938 23.168,-3.31 32.187,-1.971c21.853,3.246 43.282,-55.875 108.699,-27.344c12.075,5.267 24.008,18.104 25.786,20.017l-56.731,141.577c17.024,-20.817 19.106,-48.188 17.837,-87.823c-2.215,-69.226 -40.913,-66.239 -63.027,-48.249c-11.052,8.991 -7.758,11.724 -8.264,98.807c-0.317,54.54 39.094,51.398 53.454,37.266l56.731,-141.577Z" style="fill:currentColor;fill-opacity:0.99;"/><path d="M588.991,558.393c4.102,-3.454 20.804,-19.514 43.628,-23.053c91.23,-14.143 125.196,131.375 44.161,179.292c-46.02,27.212 -81.869,1.453 -84.751,4.422c-1.141,1.175 -0.108,61.747 -0.635,68.778c-0.84,11.219 -5.595,9.894 -45.732,10.17c-8.287,0.057 -9.963,-5.116 -10.256,-6.021c-2.385,-7.364 -0.651,-202.773 -0.495,-220.405c0.015,-1.666 0.189,-21.333 18.5,-9.552c14.706,9.461 18.078,12.472 35.578,-3.631l12.013,8.03c-11.926,11.503 -9.708,13.496 -9.473,53.675c0.306,52.202 -5.341,76.985 21.159,90.292c40.99,20.583 59.145,-58.469 47.299,-118.394c-5.504,-27.844 -20.439,-32.83 -23.571,-33.876c-14.6,-4.874 -32.956,6.747 -35.415,8.303l-12.013,-8.03Z" style="fill:currentColor;fill-opacity:0.99;"/><path d="M1694.706,560.317c5.039,-4.216 25.825,-24.826 51.815,-25.512c95.495,-2.52 110.82,137.971 38.045,179.646c-46.878,26.845 -82.4,2.648 -84.115,3.617c-4.106,2.321 0.876,69.741 -2.905,75.613c-4.916,7.636 -50.12,3.903 -52.035,2.221c-3.405,-2.991 -2.986,-3.921 -2.986,-173.784c-0,-53.677 -3.642,-69.526 17.153,-60.786c11.578,4.866 13.94,16.589 35.029,-1.016l62.945,8.501c-22.058,-26.695 -58.656,-3.322 -58.721,14.901c-0.027,7.435 -0.317,87.945 -0.135,92.944c1.628,44.652 70.814,62.106 71.193,-34.341c0.196,-49.999 -1.304,-54.899 -12.337,-73.504l-62.945,-8.501Z" style="fill:currentColor;fill-opacity:1;"/><path d="M1157.13,489.768c-7.041,-7.334 -8.289,-2.072 -17.511,2.081c-77.676,34.982 -147.104,-31.397 -102.334,-85.738c23.03,-27.954 94.36,-50.703 72.628,-65.247c-16.121,-10.789 -34.363,14.404 -43.886,-6.131c-4.058,-8.751 35.433,-36.359 75.854,-25.301c85.598,23.419 57.632,130.544 63.573,162.932c2.156,11.753 22.696,1.966 19.923,14.418c-0.31,1.393 -36.112,27.226 -68.247,2.986l-58.188,-22.303c2.785,1.429 20.344,10.438 38.875,4.416c13.262,-4.31 9.733,-8.61 9.731,-33.725c-0.008,-79.647 -1.143,-80.276 -3.331,-81.131c-4.277,-1.672 -6.867,-2.685 -41.627,39.519c-3.612,4.385 -37.247,45.223 -3.647,70.921l58.188,22.303Z" style="fill:currentColor;fill-opacity:0.99;"/><path d="M1377.674,566.2c33.757,53.709 8.994,113.945 18.984,134.831c3.349,7.001 22.385,0.715 18.857,12.26c-0.652,2.134 -42.086,27.365 -69.893,0.424c-7.173,-6.949 -18.334,15.618 -66.068,13.161c-62.159,-3.199 -98.936,-69.482 -25.825,-116.139c18,-11.487 64.17,-31.852 45.605,-44.523c-12.84,-8.764 -34.383,13.521 -42.501,-4.513c-4.116,-9.143 22.855,-28.674 57.076,-28.895c34.348,-0.221 59.971,29.059 63.763,33.392l-84.983,57.078c-44.227,53.261 0.009,89.798 41.029,72.724c6.957,-2.895 4.955,-5.624 4.037,-94.097c-0.016,-1.531 -0.183,-17.605 -3.345,-18.839c-6.715,-2.621 -15.136,7.898 -16.057,9.049c-12.709,15.874 -12.708,15.63 -25.664,31.162l84.983,-57.078Z" style="fill:currentColor;fill-opacity:0.99;"/><path d="M1328.982,360.315c2.696,-2.562 14.648,-10.495 16.941,-27.328c0.709,-5.2 -0.24,-16.248 3.169,-19.297c4.851,-4.34 53.759,-1.715 53.966,-1.66c15.798,4.209 -5.411,13.25 -59.604,56.436c-28.117,22.406 6.647,27.657 53.982,62.771c30.391,22.545 23.873,89.138 22.754,91.466c-6.367,13.24 -20.573,-1.551 -22.121,-2.743c-33.846,-26.043 -34.055,-25.706 -36.883,-28.107c-13.702,-11.631 7.061,-25.083 -24.166,-64.51c-22.895,-28.907 -22.09,-34.37 -26.45,-30.673c-5.265,4.465 -11.868,8.46 -11.916,21.282c-0.278,74.207 1.934,78.289 -4.99,78.432c-46.908,0.975 -47.984,-0.49 -50.377,-3.746c-1.988,-2.706 -1.792,-3.142 -1.792,-191.948c0,-57.063 -2.872,-67.075 13.644,-64.022c50.506,9.334 43.621,67.42 43.622,76.152c0.01,71.046 -0.32,71.566 1.134,72.415c2.079,1.214 18.447,-14.977 29.087,-24.92Z" style="fill:currentColor;fill-opacity:0.99;"/><path d="M1957.797,566.396c72.18,-69.742 161.276,-13.613 154.951,35.542c-7.288,56.64 -80.486,41.024 -103.456,48.312c-27.334,8.672 22.222,91.473 81.738,23.101c4.768,-5.478 16.791,-0.922 8.668,10.987c-46.102,67.59 -133.684,47.219 -156.154,-6.033c-27.979,-66.307 14.122,-111.726 14.253,-111.909l96.921,-9.925c-15.548,-13.189 -35.274,-11.116 -48.571,9.552c-12.45,19.352 -16.71,77.888 -6.735,68.486c6.031,-5.685 19.398,-9.847 32,-14.866c45.694,-18.199 31.756,-54.214 23.306,-63.173l-96.921,9.925Z" style="fill:currentColor;fill-opacity:0.99;"/><path d="M1171.525,706.021c-0.211,0.152 -39.884,37.523 -96.027,12.799c-82.943,-36.526 -59.934,-192.185 54.479,-184.296c83.645,5.768 99.869,95.476 32.317,109.926c-25.003,5.349 -73.105,-4.878 -69.072,20.181c5.299,32.927 50.745,52.848 86.853,11.729c12.75,-14.52 15.55,1.127 12.259,6.239c-8.553,13.283 -9.578,12.288 -20.809,23.422l-34.949,-93.112c3.577,-2.642 14.02,-8.582 17.672,-27.168c8.609,-43.805 -62.546,-64.712 -68.317,24.282c-1.377,21.239 0.082,28.247 5.414,23.976c12.83,-10.276 15.204,-5.409 45.231,-21.09l34.949,93.112Z" style="fill:currentColor;fill-opacity:0.99;"/><path d="M1575.858,477.627c-2.618,1.939 -35.256,34.57 -87.832,18.365c-92.606,-28.542 -76.844,-192.69 42.169,-188.514c77.065,2.704 104.774,86.528 42.311,107.938c-31.285,10.723 -96.365,-8.688 -71.79,36.433c11.441,21.006 49.062,34.593 81.575,-1.991c5.52,-6.211 6.864,-9.443 12.596,-3.588c7.3,7.458 -14.544,26.697 -19.028,31.358l-26.474,-101.419c13.973,-19.25 8.293,-42.646 -5.482,-50.476c-40.63,-23.096 -60.874,41.29 -55.326,81.771c0.054,0.39 0.468,3.413 4.923,-0.152c20.177,-16.148 34.938,-7.529 55.885,-31.143l26.474,101.419Z" style="fill:currentColor;fill-opacity:0.99;"/><path d="M1003.638,493.757c-5.639,3.079 -50.207,6.168 -53.326,-3.149c-5.697,-17.018 8.727,-140.551 -10.998,-154.814c-19.219,-13.897 -49.385,4.291 -49.848,15.442c-1.325,31.904 2.999,137.468 -2.915,142.644c-2.413,2.112 -49.215,6.474 -52.602,-2.813c-0.86,-2.358 -2.605,-153.871 0.967,-157.878c8.089,-9.073 23.053,11.046 34.114,9.228c16.784,-2.758 39.633,-46.658 96.937,-32.863c35.579,8.565 38.287,42.836 38.674,47.736c0.515,6.52 3.534,126.237 1.122,133.108c-0.105,0.3 -0.158,0.249 -2.127,3.359Z" style="fill:currentColor;fill-opacity:0.99;"/><path d="M991.481,554.168c14.1,22.763 13.365,24.126 13.326,142.749c-0.006,17.789 3.87,25.912 -16.397,26.044c-31.767,0.207 -40.649,2.54 -40.891,-11.887c-1.789,-106.93 10.091,-152.626 -25.826,-153.567c-2.832,-0.074 -34.117,4.68 -34.272,24.181c-1.061,133.136 3.534,137.204 -5.812,140.409c-1.028,0.352 -43.321,2.964 -48.094,-1.705c-2.5,-2.445 -2.497,-2.959 -2.435,-146.789c0.015,-34.686 23.293,1.145 39.719,-5.017c14.173,-5.317 41.392,-45.49 93.447,-31.735c17.836,4.713 27.14,17.222 27.236,17.317Z" style="fill:currentColor;fill-opacity:0.99;"/><path d="M453.702,528.061c16.125,15.514 19.977,9.741 26.263,16.196c9.893,10.159 9.924,115.556 -0.998,115.681c-17.245,0.197 -42.917,-70.543 -92.582,-43.116c-8.541,4.717 -16.728,14.747 -17.953,16.248c-0.245,0.3 -3.564,4.366 -4.703,1.167c-0.046,-0.128 -3.012,-15.155 -8.76,-32.115c-14.881,-43.9 -31.267,-57.005 -23.46,-58.215c52.899,-8.2 40.625,-51.437 78.682,-50.379c19.619,0.546 27.281,17.051 43.511,34.533Z" style="fill:currentColor;fill-opacity:1;"/><path d="M1901.2,485.343c11.298,20.138 9.049,21.256 9.819,94.321c0.119,11.326 1.448,137.274 -0.593,141.588c-0.886,1.872 -50.375,4.833 -54.67,-2.131c-1.927,-3.124 -1.949,-3.376 -1.91,-238.512c0.001,-4.061 -2.131,-19.243 12.045,-16.687c23.363,4.213 30.873,16.059 35.308,21.421Z" style="fill:currentColor;fill-opacity:0.99;"/><path d="M781.484,548.319c24.739,22.673 21.706,26.833 21.706,128.382c-0,32.653 2.355,45.914 -8.884,46.176c-43.663,1.016 -44.587,-0.495 -46.533,-3.682c-1.442,-2.361 -2.11,-2.476 -2.07,-153.68c0.003,-12.438 -5.423,-34.079 24.069,-23.483c5.857,2.104 5.436,2.599 11.713,6.287Z" style="fill:currentColor;fill-opacity:0.99;"/><path d="M371.249,738.401c-2.791,-1.118 -2.867,-0.993 -3.014,-1.207c-2.441,-3.556 7.465,-8.159 0.131,-76.726c-0.616,-5.764 16.879,-30.774 33.745,-34.368c35.502,-7.566 32.058,29.996 73.081,48.044c8.957,3.941 -19.055,67.424 -22.396,67.789c-4.294,0.468 -39.161,-51.874 -81.547,-3.531Z" style="fill:currentColor;fill-opacity:0.99;"/><path d="M405.231,807.113c-17.222,15.444 -47.083,44.399 -59.317,19.006c-5.484,-11.382 1.525,-11.132 16.037,-54.296c0.355,-1.057 20.238,-26.272 26.739,-31.568c27.304,-22.244 57.361,12.893 54.923,19.024c-2.331,5.862 -21.272,31.312 -38.384,47.835Z" style="fill:currentColor;fill-opacity:0.99;"/><path d="M417.302,231.087c-46.093,53.647 -46.949,77.623 -61.683,79.42c-0.397,0.048 -3.916,0.478 -3.334,-3.731c12.853,-92.954 29.72,-101.771 72.303,-124.943c45.928,-24.992 51.187,-6.833 47.406,-3.302c-13.24,12.363 -22.733,16.909 -54.692,52.555Z" style="fill:currentColor;fill-opacity:0.99;"/><path d="M225.21,249.506c-38.459,-60.708 -52.817,-70.666 -67.143,-82.876c-7.74,-6.597 5.732,-17.836 39.381,1.521c58.775,33.81 59.759,52.127 63.286,79.963c5.775,45.566 13.015,45.693 8.37,54.924c-2.489,4.947 -7.131,2.924 -43.894,-53.532Z" style="fill:currentColor;fill-opacity:0.99;"/><path d="M400.877,386.572c32.866,-26.75 37.134,-35.829 78.103,-29.492c32.378,5.008 75.557,23.504 66.389,32.284c-1.744,1.67 -14.601,1.734 -15.879,1.74c-105.988,0.528 -133.892,29.865 -153.665,27.132c-17.811,-2.461 7.1,-17.077 25.052,-31.665Z" style="fill:currentColor;fill-opacity:0.99;"/><path d="M207.055,372.19c7.324,9.776 52.379,48.864 1.313,28.728c-52.054,-20.526 -50.322,-26.215 -105.432,-35.649c-4.566,-0.782 -65.288,-8.505 -24.084,-21.531c71.866,-22.719 98.596,-6.689 128.203,28.453Z" style="fill:currentColor;fill-opacity:0.99;"/><path d="M801.436,487.022c12.51,51.344 -68.124,46.019 -53.615,-0.352c4.144,-13.244 34.951,-35.59 53.615,0.352Z" style="fill:currentColor;fill-opacity:0.99;"/><path d="M196.787,715.566c4.244,-3.098 5.608,-4.547 8.325,0.018c3.202,5.38 -9.695,12.924 -8.325,-0.018Z" style="fill:currentColor;fill-opacity:0.95;"/></g></svg>