<?xml version="1.0" encoding="UTF-8" standalone="no"?><!DOCTYPE svg PUBLIC "-//W3C//DTD SVG 1.1//EN" "http://www.w3.org/Graphics/SVG/1.1/DTD/svg11.dtd"><svg width="100%" height="100%" viewBox="0 0 272 272" version="1.1" xmlns="http://www.w3.org/2000/svg" xmlns:xlink="http://www.w3.org/1999/xlink" xml:space="preserve" xmlns:serif="http://www.serif.com/" style="fill-rule:evenodd;clip-rule:evenodd;stroke-linejoin:round;stroke-miterlimit:2;"><rect id="pistachio" x="0" y="0" width="272" height="272" style="fill:none;"/><g id="pistachio1" serif:id="pistachio"><path d="M143.528,9.346c0.386,1.439 0.092,1.416 0.448,2.856c-0.132,0.984 -0.264,1.967 -0.396,2.951c0.104,1.004 0.207,2.007 0.311,3.011c0.103,2.549 0.1,2.466 0.199,4.96c-0.46,2.386 -0.467,2.298 -0.539,2.967c-0.798,3.309 -0.969,3.282 -0.833,4.044c0.259,1.461 1.755,0.916 1.913,0.859c18.489,-6.737 18.75,-5.776 20.271,-6.543c0.889,-0.107 2.531,-0.229 2.751,-0.245c4.469,0.24 4.381,0.002 7.011,-0.116c0.66,0.09 1.32,0.179 1.98,0.269c3.623,0.628 3.557,0.675 7.053,1.719c1.307,0.711 2.614,1.421 3.921,2.132c12.828,8.791 15.932,21.304 16.92,23.04c1.961,3.446 27.818,-8.194 29.335,6.869c3.335,33.121 0.831,33.112 0.992,47.075c-5.49,34.466 -7.995,44.244 -21.551,74.841c-5.793,10.508 -4.931,10.852 -5.187,12.329c-0.823,3.348 -2.112,2.668 -3.367,5.87c-2.595,2.903 -12.321,21.484 -23.499,34.562c-27.574,32.264 -50.701,31.49 -58.602,32.145c-10.737,-2.126 -24.592,3.233 -59.776,-33.206c-0.835,-1.06 -0.786,-1.02 -1.872,-1.699c-8.234,-11.346 -19.816,-24.216 -23.528,-58.87c-0.865,-8.071 0.573,-8.099 -1.071,-17.009c-0.073,-0.395 0.004,-0.372 0.056,-5.016c1.175,-6.753 2.35,-60.185 47.489,-106.718c13.89,-14.319 22.557,-18.257 27.348,-23.656c3.018,-0.503 2.972,-0.577 5.513,-2.347c4.979,-3.159 4.692,-3.584 10.041,-5.848c12.122,-5.132 13.542,-3.819 16.667,-1.225Z" style="fill:#7e5936;"/><path d="M218.904,149.705c-11.974,29.858 -10.908,30.503 -15.954,36.299c-1.413,4.867 -21.064,45.569 -49.532,63.261c-27.788,17.27 -66.571,9.855 -61.19,-10.805l0.135,-2.851c7.854,-22.13 16.26,-36.219 18.028,-39.182l0.856,-1.887c21.89,-40.713 63.469,-86.943 70.14,-92.181c0.647,-1.051 15.61,-19.787 41.06,-42.875c1.849,-2.75 2.325,-3.24 2.566,-3.489c4.124,-4.248 3.946,8.513 4.058,9.618c2.907,28.555 -1.321,38.391 -1.144,38.983c1.142,3.815 0.475,3.8 -0.235,8.058c-2.304,16.274 -4.244,21.511 -6.726,30.14c-0.168,0.552 -1.195,3.912 -2.063,6.91Z" style="fill:#edceaa;"/><path d="M166.621,111.622c-1.178,1.646 -1.135,1.647 -1.249,1.778c-7.531,8.662 -61.778,71.053 -76.304,121.499c-1.428,4.96 -3.957,-5.239 -3.998,-5.372c-1.889,-6.026 -11.583,-36.946 -3.353,-78.867c3.953,-15.396 3.266,-32.745 27.186,-83.879c7.437,-15.897 12.172,-20.036 27.63,-28.374c48.549,-26.185 58.506,2.573 60.511,6.077l1.87,4.023c3.343,10.228 2.949,10.335 3.262,11.216c0.749,4.82 0.497,4.781 0.735,7.901c0.274,8.477 -2.648,7.412 -8.803,14.426c-3.552,4.048 -3.576,3.887 -7.372,7.684c-2.292,2.829 -13.028,13.875 -17.668,19.401c-1.195,1.356 -1.104,1.324 -2.448,2.489Z" style="fill:#80c261;"/><path d="M82.704,239.641c3.822,5.452 2.475,6.091 1.967,6.055c-0.558,-0.04 -16.372,-13.791 -18.765,-17.203c-5.85,-8.343 -9.017,-7.256 -17.631,-28.638c-1.398,-3.97 -8.362,-23.745 -6.768,-52.181c1.789,-15.838 1.884,-19.509 6.083,-33.064c0.482,-1.677 4.584,-15.937 7.66,-20.423c2.874,-6.561 20.366,-46.489 57.307,-68.796c2.92,-2.245 2.841,-2.243 5.071,-3.821c2.413,-1.368 2.248,-1.712 5.076,-1.878c2.849,-2.639 4.561,-3.058 4.918,-3.242l1.367,-1.306c2.235,-0.886 7.655,-3.438 7.716,-1.483c0.022,0.696 -0.9,0.178 -4.663,7.263c-2.639,3.965 -3.211,3.484 -5.301,7.769c-1.793,2.678 -17.834,26.637 -19.917,35.018c-0.261,0.48 -2.015,3.711 -3.481,5.879c-0.581,1.747 -0.472,1.686 -1.212,3.317c-0.169,0.358 -0.09,0.292 -1.944,4.547c-5.754,11.963 -5.452,12.012 -10.143,24.39c-0.933,3.139 -1.169,3.354 -1.928,5.866c0.077,0.132 -0.028,0.297 -0.138,0.464l-0.151,0.52c-6.703,21.754 -5.991,21.834 -10.955,44.045c-0.934,3.948 -0.236,3.986 -0.891,7.959c-1.247,10.574 -0.596,10.569 -2.059,21.039c-0.235,5.822 0.63,5.758 -0.051,14.965c-0.018,0.245 -0.054,0.729 0.556,3.015c1.024,10.966 1.054,14.412 6.106,32.956c1.638,3.316 1.613,3.252 2.172,6.969Z" style="fill:#edceaa;"/><path d="M90.056,151.396c-2.229,1.25 -3.994,2.79 -3.268,0.309c0.217,-0.742 0.314,-0.627 1.577,-2.125l1.216,-1.969c1.945,-4.339 2.011,-4.416 2.285,-4.735c5.638,-6.558 10.684,-27.616 11.284,-30.118c5.866,-24.478 18.519,-20.382 25.023,-33.359c4.478,-8.934 -3.033,-13.212 11.55,-24.676c0.346,-0.272 21.246,-14.634 21.971,-14.894c8.996,-3.222 -15.339,12.825 -22.893,19.956c-7.434,7.017 -3.66,13.55 -6.035,19.902c-3.914,10.468 -7.69,7.63 -20.222,22.884c-0.818,1.121 -1.579,2.019 -1.723,2.189c-0.43,0.472 -2.3,3.319 -3.052,6.945c-6.601,24.357 -9.53,23.642 -15.256,35.926l-1.199,1.907c-0.806,0.964 -0.709,0.963 -0.965,2.178l-0.294,-0.319Z" style="fill:#52893e;"/><path d="M142.666,102.636c0.581,-0.654 4.664,-5.249 9.941,-4.555c0.203,0.027 3.451,1.625 -0.988,2.364c-4.521,0.753 -4.37,1.184 -7.616,4.344c-0.764,0.318 -1.529,0.636 -2.293,0.953c-1.443,0.88 -1.353,0.972 -6.946,6.005c-14.208,12.783 -13.226,30.201 -13.467,31.956l-0.484,2.019c-0.016,0.02 -0.001,-0 -1.245,1.825c0,0 -0.778,1.049 -0.846,1.141c-1.446,2.535 -1.382,2.522 -3.437,4.611c-9.912,10.933 -10.754,14.101 -11.148,15.583c-0.138,0.519 -3.468,13.05 -3.438,5.769c0.022,-5.341 0.951,-5.131 5.191,-15.813c3.411,-4.613 4.042,-4.062 6.836,-9.146c0.055,-0.077 0.355,0.193 1.157,-1.913c1.561,-1.84 1.375,-1.875 1.744,-4.165c6.079,-6.943 -5.056,-13.25 16.306,-33.483c4.291,-2.915 5.694,-5.335 5.78,-5.438c2.56,-0.877 2.549,-0.699 4.951,-2.057Z" style="fill:#558b41;"/></g></svg>