<?xml version="1.0" encoding="UTF-8" standalone="no"?><!DOCTYPE svg PUBLIC "-//W3C//DTD SVG 1.1//EN" "http://www.w3.org/Graphics/SVG/1.1/DTD/svg11.dtd"><svg width="100%" height="100%" viewBox="0 0 570 855" version="1.1" xmlns="http://www.w3.org/2000/svg" xmlns:xlink="http://www.w3.org/1999/xlink" xml:space="preserve" xmlns:serif="http://www.serif.com/" style="fill-rule:evenodd;clip-rule:evenodd;stroke-linejoin:round;stroke-miterlimit:2;"><rect id="Logomark" x="0" y="0" width="569.772" height="854.157" style="fill:none;"/><g id="NakedPineapple_Logomark"><path d="M191.964,730.405c23.9,-16.794 32.35,-21.357 55.543,-18.437c6.429,0.809 6.082,-14.877 6.362,-18.948c0.551,-7.995 -24.35,-4.532 -32.2,-12.478c-11.298,-11.435 28.85,-102.196 -19.265,-150.54c-44.869,-45.083 -102.146,4.391 -105.346,27.69c-3.251,23.662 1.953,23.833 9.555,27.228c57.161,25.525 103.391,3.776 92.744,25.377c-2.767,5.614 -53.981,8.129 -97.577,-11.324c-5.477,-2.444 -4.644,1.305 -3.933,7.152c2.623,21.559 9.588,84.534 45.877,138.006c37.813,55.719 82.726,61.289 87.614,62.447c10.565,2.504 7.759,10.927 3.983,13.588c-6.143,4.328 -35.397,-6.924 -45.79,-12.898c-84.775,-48.726 -102.411,-149.835 -107.871,-215.299c-0.676,-8.107 -36.727,-30.347 -27.198,-41.838c7.738,-9.332 15.896,6.871 19.634,11.275c12.215,14.391 4.304,-7.051 16.434,-44.091c44.756,-136.666 150.028,-112.143 135.868,-126.696c-46.757,-48.054 -108.584,-138.074 -197.523,-191.973c-16.451,-9.969 -2.025,-16.001 10.651,-15.512c129.142,4.982 200.393,112.842 210.859,194.418c1.567,12.212 0.176,19.357 11.474,14.522c4.564,-1.953 -6.107,-55.173 -7.779,-123.593c-0.41,-16.79 -2.915,-119.322 28.458,-207.997c29.157,-82.41 39.155,31.361 37.954,121.087c-1.06,79.131 -3.801,83.14 -12.373,121.279c-19.416,86.388 -22.633,88.985 -17.826,90.228c11.258,2.912 10.768,-1.172 12.325,-7.204c27,-104.595 136.418,-183.081 225.83,-168.486c30.438,4.969 17.204,16.888 15.533,17.765c-67.255,35.288 -105.926,58.947 -218.77,161.523c-12.593,11.447 68.993,5.424 119.973,108.468c5.559,11.237 -6.222,3.125 -18.883,-13.014c-49.887,-63.594 -88.785,0.594 -98.889,11.974c-9.64,10.857 -31.658,17.956 -44.349,3.732c-70.654,-79.186 -162.447,-12.441 -174.712,3.336c-4.216,5.424 -1.027,8.186 1.737,5.755c5.349,-4.705 42.741,-37.595 88.553,-9.13c62.894,39.079 39.248,135.682 36.221,156.848c-1.191,8.327 8.364,7.665 14.69,8.538c10.981,1.516 3.818,-10.206 16.47,-18.117c26.133,-16.342 53.389,33.635 11.839,35.472c-11.808,0.522 -9.815,4.819 -10.443,16.665c-0.566,10.688 16.044,-10.359 44.577,20.392c14.379,15.496 15.646,14.274 16.49,15.901c8.375,16.147 -20.759,7.812 -36.522,9.747c-34.338,4.215 -34.288,2.054 -68.689,-2.296c-0.423,-0.053 -7.239,-0.576 -0.66,5.29c23.447,20.905 37.84,27.552 65.556,16.155c6.952,-2.859 19.937,10.219 -4.118,18.036c-49.216,15.992 -88.876,-43.664 -89.507,-44.105c-7.969,-5.579 -7.838,-7.583 -2.58,-15.918l73.015,0.046c-13.485,5.575 -12.957,-5.803 -27.492,-4.768c-14.233,1.013 -27.998,8.962 -20.329,10.018c58.298,8.029 86.877,3.924 80.429,-1.851c-20.081,-17.987 -32.243,-3.637 -32.608,-3.399l-73.015,-0.046Z" style="fill:#040607;fill-opacity:0.99;"/><path d="M426.373,514.061c16.112,15.514 19.961,9.741 26.242,16.196c9.885,10.159 9.916,115.556 -0.997,115.681c-17.231,0.197 -42.882,-70.543 -92.507,-43.116c-8.534,4.717 -16.714,14.747 -17.938,16.248c-0.245,0.3 -3.561,4.366 -4.699,1.167c-0.046,-0.128 -3.009,-15.155 -8.753,-32.115c-14.869,-43.9 -31.241,-57.005 -23.441,-58.215c52.856,-8.2 40.592,-51.437 78.618,-50.379c19.603,0.546 27.259,17.051 43.476,34.533Z" style="fill:#050708;fill-opacity:1;"/><path d="M343.987,724.401c-2.789,-1.118 -2.865,-0.993 -3.012,-1.207c-2.439,-3.556 7.459,-8.159 0.131,-76.726c-0.616,-5.764 16.866,-30.774 33.718,-34.368c35.473,-7.566 32.031,29.996 73.022,48.044c8.95,3.941 -19.04,67.424 -22.378,67.789c-4.29,0.468 -39.129,-51.874 -81.481,-3.531Z" style="fill:#050708;fill-opacity:0.99;"/><path d="M377.941,793.113c-17.208,15.444 -47.045,44.399 -59.268,19.006c-5.479,-11.382 1.524,-11.132 16.024,-54.296c0.355,-1.057 20.222,-26.272 26.718,-31.568c27.281,-22.244 57.314,12.893 54.879,19.024c-2.329,5.862 -21.254,31.312 -38.352,47.835Z" style="fill:#050708;fill-opacity:0.99;"/><path d="M390.002,217.087c-46.056,53.647 -46.911,77.623 -61.633,79.42c-0.397,0.048 -3.913,0.478 -3.331,-3.731c12.843,-92.954 29.696,-101.771 72.244,-124.943c45.89,-24.992 51.146,-6.833 47.367,-3.302c-13.23,12.363 -22.715,16.909 -54.647,52.555Z" style="fill:#050708;fill-opacity:0.99;"/><path d="M198.066,235.506c-38.427,-60.708 -52.774,-70.666 -67.089,-82.876c-7.734,-6.597 5.727,-17.836 39.349,1.521c58.727,33.81 59.71,52.127 63.235,79.963c5.77,45.566 13.005,45.693 8.364,54.924c-2.487,4.947 -7.125,2.924 -43.859,-53.532Z" style="fill:#050708;fill-opacity:0.99;"/><path d="M373.59,372.572c32.839,-26.75 37.104,-35.829 78.039,-29.492c32.352,5.008 75.496,23.504 66.335,32.284c-1.742,1.67 -14.589,1.734 -15.866,1.74c-105.902,0.528 -133.783,29.865 -153.541,27.132c-17.796,-2.461 7.094,-17.077 25.031,-31.665Z" style="fill:#050708;fill-opacity:0.99;"/><path d="M179.926,358.19c7.318,9.776 52.336,48.864 1.312,28.728c-52.012,-20.526 -50.281,-26.215 -105.346,-35.649c-4.562,-0.782 -65.235,-8.505 -24.065,-21.531c71.807,-22.719 98.516,-6.689 128.099,28.453Z" style="fill:#050708;fill-opacity:0.99;"/><path d="M169.667,701.566c4.241,-3.098 5.604,-4.547 8.318,0.018c3.199,5.38 -9.687,12.924 -8.318,-0.018Z" style="fill:#050708;fill-opacity:0.95;"/></g></svg>