<?xml version="1.0" encoding="UTF-8" standalone="no"?><!DOCTYPE svg PUBLIC "-//W3C//DTD SVG 1.1//EN" "http://www.w3.org/Graphics/SVG/1.1/DTD/svg11.dtd"><svg width="100%" height="100%" viewBox="0 0 1081 1079" version="1.1" xmlns="http://www.w3.org/2000/svg" xmlns:xlink="http://www.w3.org/1999/xlink" xml:space="preserve" xmlns:serif="http://www.serif.com/" style="fill-rule:evenodd;clip-rule:evenodd;stroke-linejoin:round;stroke-miterlimit:2;"><rect id="shopify-collabs" x="0" y="0" width="1080.199" height="1079" style="fill:none;"/><clipPath id="_clip1"><rect x="0" y="0" width="1080.199" height="1079"/></clipPath><g clip-path="url(#_clip1)"><g id="shopify-collabs1" serif:id="shopify-collabs"><path d="M1080.801,1079l-1081,0l-0,-1081l1081,0l0,1081Z" style="fill:url(#_Linear2);"/><g><path d="M213.85,643.698c-9.251,8.466 -21.08,12.698 -35.488,12.698c-17.828,0 -31.844,-5.718 -42.048,-17.155c-10.204,-11.493 -15.305,-27.247 -15.305,-47.262c0,-21.641 5.803,-38.32 17.408,-50.037c10.091,-10.204 22.93,-15.305 38.516,-15.305c20.856,0 36.105,6.84 45.748,20.519c5.326,7.681 8.185,15.389 8.578,23.126l-25.901,0c-1.682,-5.943 -3.84,-10.428 -6.475,-13.455c-4.709,-5.382 -11.689,-8.073 -20.94,-8.073c-9.419,0 -16.847,3.798 -22.285,11.395c-5.438,7.597 -8.157,18.347 -8.157,32.251c0,13.904 2.873,24.318 8.62,31.241c5.747,6.924 13.049,10.386 21.907,10.386c9.082,0 16.006,-2.971 20.772,-8.914c2.635,-3.196 4.821,-7.989 6.559,-14.38l25.649,0c-2.243,13.511 -7.961,24.5 -17.155,32.965Z" style="fill-rule:nonzero;"/><path d="M305.598,656.396c-17.716,0 -31.256,-4.821 -40.618,-14.464c-12.558,-11.829 -18.837,-28.873 -18.837,-51.13c0,-22.706 6.279,-39.749 18.837,-51.13c9.363,-9.643 22.902,-14.464 40.618,-14.464c17.716,0 31.256,4.821 40.618,14.464c12.502,11.381 18.753,28.424 18.753,51.13c0,22.257 -6.251,39.301 -18.753,51.13c-9.363,9.643 -22.902,14.464 -40.618,14.464Zm24.472,-33.302c5.999,-7.569 8.998,-18.333 8.998,-32.293c0,-13.904 -3.013,-24.654 -9.04,-32.251c-6.027,-7.597 -14.17,-11.395 -24.43,-11.395c-10.26,0 -18.445,3.784 -24.556,11.353c-6.111,7.569 -9.166,18.333 -9.166,32.293c0,13.96 3.055,24.724 9.166,32.293c6.111,7.569 14.296,11.353 24.556,11.353c10.26,0 18.417,-3.784 24.472,-11.353Z" style="fill-rule:nonzero;"/><path d="M384.732,528.992l25.901,0l0,101.672l61.39,0l0,22.285l-87.291,0l0,-123.957Z" style="fill-rule:nonzero;"/><path d="M489.936,528.992l25.901,0l0,101.672l61.39,0l0,22.285l-87.291,0l0,-123.957Z" style="fill-rule:nonzero;"/><path d="M667.714,627.467l-45.664,0l-8.578,25.481l-27.079,0l44.234,-123.957l29.265,0l43.898,123.957l-28.088,0l-7.989,-25.481Zm-7.232,-21.36l-15.474,-48.775l-15.978,48.775l31.452,0Z" style="fill-rule:nonzero;"/><path d="M720.725,652.948l0,-130.469l42.244,0c14.37,0 25.485,2.802 33.343,8.407c7.859,5.605 11.788,13.583 11.788,23.935c0,8.453 -2.775,15.068 -8.324,19.846c-5.549,4.778 -13.424,7.381 -23.624,7.81l0,3.032l4.427,0c11.868,0 21.026,2.756 27.473,8.269c6.447,5.513 9.671,13.292 9.671,23.337c0,11.393 -3.737,20.213 -11.211,26.461c-7.474,6.248 -18.075,9.372 -31.804,9.372l-53.984,0Zm25.404,-22.327l22.999,0c6.928,0 12.317,-1.562 16.166,-4.686c3.849,-3.124 5.774,-7.503 5.774,-13.139c0,-5.574 -2.021,-9.892 -6.062,-12.955c-4.042,-3.063 -9.783,-4.594 -17.225,-4.594l-21.651,0l0,35.374Zm0,-57.792l17.225,0c12.061,0 18.091,-4.9 18.091,-14.701c0,-8.882 -6.479,-13.323 -19.438,-13.323l-15.878,0l0,28.023Z" style="fill-rule:nonzero;"/><path d="M888.885,635.036c6.111,0 11.073,-0.673 14.885,-2.018c7.232,-2.579 10.848,-7.372 10.848,-14.38c0,-4.093 -1.794,-7.26 -5.382,-9.503c-3.588,-2.186 -9.222,-4.121 -16.903,-5.803l-13.119,-2.943c-12.895,-2.915 -21.809,-6.083 -26.742,-9.503c-8.353,-5.718 -12.53,-14.661 -12.53,-26.826c0,-11.101 4.037,-20.323 12.11,-27.667c8.073,-7.344 19.931,-11.017 35.572,-11.017c13.063,0 24.205,3.462 33.428,10.386c9.222,6.924 14.058,16.973 14.506,30.148l-24.892,0c-0.449,-7.456 -3.7,-12.754 -9.755,-15.894c-4.037,-2.074 -9.054,-3.112 -15.053,-3.112c-6.672,0 -11.998,1.346 -15.978,4.037c-3.981,2.691 -5.971,6.447 -5.971,11.269c0,4.429 1.962,7.737 5.887,9.923c2.523,1.458 7.905,3.168 16.146,5.13l21.36,5.13c9.363,2.243 16.427,5.242 21.192,8.998c7.4,5.831 11.101,14.268 11.101,25.313c0,11.325 -4.331,20.73 -12.993,28.214c-8.662,7.485 -20.898,11.227 -36.708,11.227c-16.146,0 -28.845,-3.686 -38.095,-11.059c-9.251,-7.372 -13.876,-17.506 -13.876,-30.401l24.724,0c0.785,5.662 2.327,9.895 4.625,12.698c4.205,5.102 11.409,7.653 21.613,7.653Z" style="fill-rule:nonzero;"/></g><g><path d="M317.15,310.04c1.019,0 1.529,0.51 2.548,1.019c-6.116,2.548 -12.232,9.174 -15.29,23.445l-11.213,3.058c3.568,-10.193 10.703,-27.522 23.954,-27.522Zm5.606,5.097c1.019,3.058 2.039,6.626 2.039,12.232l0,1.019l-14.78,4.077c3.058,-10.703 8.155,-15.29 12.742,-17.329Zm13.251,9.174l-6.626,2.039l0,-1.529c0,-4.587 -0.51,-8.155 -1.529,-11.213c3.568,1.019 6.626,5.606 8.155,10.703Zm33.128,8.155c0,-0.51 -0.51,-1.019 -1.019,-1.019c-1.019,0 -11.722,-1.019 -11.722,-1.019c0,0 -7.645,-7.645 -8.664,-8.155c-1.019,-1.019 -2.548,-0.51 -3.058,-0.51c0,0 -1.529,0.51 -4.077,1.529c-2.548,-7.135 -7.135,-13.761 -14.78,-13.761l-0.51,0c-2.039,-3.058 -5.097,-4.077 -7.645,-4.077c-18.348,-0.51 -27.012,22.425 -30.07,34.148c-4.077,1.019 -8.155,2.548 -12.742,4.077c-4.077,1.019 -4.077,1.529 -4.587,5.097c-0.51,2.548 -10.703,83.076 -10.703,83.076l81.037,15.29l43.831,-9.684c0,0 -15.29,-103.972 -15.29,-104.991Z" style="fill:#8db849;fill-rule:nonzero;"/><path d="M367.607,331.446c-0.51,0 -11.213,-1.019 -11.213,-1.019c0,0 -7.645,-7.645 -8.664,-8.155c-0.51,-0.51 -0.51,-0.51 -1.019,-0.51l-6.116,125.378l43.831,-9.684c0,0 -15.29,-103.972 -15.29,-104.991c0,-0.51 -1.019,-1.019 -1.529,-1.019" style="fill:#5a863e;fill-rule:nonzero;"/><path d="M325.815,355.91l-5.606,16.309c0,0 -4.587,-2.548 -10.703,-2.548c-8.664,0 -9.174,5.097 -9.174,6.626c0,7.135 19.367,10.193 19.367,27.522c0,13.761 -8.664,22.425 -20.387,22.425c-13.761,0 -20.896,-8.664 -20.896,-8.664l3.568,-12.232c0,0 7.135,6.116 13.251,6.116c4.077,0 5.606,-3.058 5.606,-5.606c0,-9.684 -15.8,-10.193 -15.8,-25.993c0,-13.251 9.684,-25.993 28.541,-25.993c8.664,-0.51 12.232,2.039 12.232,2.039" style="fill:#fffffe;fill-rule:nonzero;"/><path d="M435.903,385.98c-4.587,-2.548 -6.626,-4.587 -6.626,-7.135c0,-3.568 3.058,-5.606 8.155,-5.606c5.606,0 10.703,2.548 10.703,2.548l4.077,-12.232c0,0 -3.568,-3.058 -14.271,-3.058c-15.29,0 -25.483,8.664 -25.483,20.896c0,7.135 5.097,12.232 11.213,15.8c5.097,3.058 7.135,5.097 7.135,8.155c0,3.058 -2.548,6.116 -7.645,6.116c-7.135,0 -14.271,-3.568 -14.271,-3.568l-4.077,12.232c0,0 6.116,4.077 16.819,4.077c15.29,0 26.503,-7.645 26.503,-21.406c0,-7.645 -5.606,-13.251 -12.232,-16.819m61.67,-25.993c-7.645,0 -13.761,3.568 -18.348,9.174l6.626,-34.657l-17.329,0l-16.819,88.172l17.329,0l5.606,-30.07c2.039,-11.213 8.155,-18.348 13.761,-18.348c4.077,0 5.606,2.548 5.606,6.626c0,2.548 0,5.097 -0.51,7.645l-6.626,34.657l17.329,0l6.626,-35.677c0.51,-3.568 1.019,-8.155 1.019,-11.213c0,-10.193 -5.097,-16.309 -14.271,-16.309m44.341,50.457c-6.116,0 -8.155,-5.097 -8.155,-11.213c0,-9.684 5.097,-25.993 14.271,-25.993c6.116,0 8.155,5.097 8.155,10.193c0,11.213 -5.097,27.012 -14.271,27.012Zm8.664,-50.457c-20.896,0 -34.657,18.858 -34.657,39.754c0,13.251 8.155,23.954 23.954,23.954c20.387,0 34.148,-18.348 34.148,-39.754c0,-12.232 -7.135,-23.954 -23.445,-23.954Zm50.967,50.967c-4.587,0 -7.135,-2.548 -7.135,-2.548l3.058,-16.309c2.039,-10.703 7.645,-17.838 13.761,-17.838c5.097,0 7.135,5.097 7.135,9.684c-0.51,11.213 -7.135,27.012 -16.819,27.012Zm16.819,-50.967c-11.722,0 -18.348,10.193 -18.348,10.193l1.019,-9.174l-15.29,0c-0.51,6.116 -2.039,15.8 -3.568,22.935l-12.232,63.199l17.329,0l4.587,-25.483l0.51,0c0,0 3.568,2.039 10.193,2.039c20.387,0 33.638,-20.896 33.638,-41.793c0,-11.213 -5.097,-21.916 -17.838,-21.916Zm42.302,-24.464c-5.606,0 -9.684,4.587 -9.684,10.193c0,5.097 3.058,8.664 8.155,8.664c5.606,0 10.193,-3.568 10.193,-10.193c0,-5.097 -3.568,-8.664 -8.664,-8.664m-23.954,87.153l17.329,0l11.722,-61.16l-17.329,0l-11.722,61.16Zm72.882,-61.16l-12.232,0l0.51,-3.058c1.019,-6.116 4.587,-11.213 10.193,-11.213c3.058,0 5.606,1.019 5.606,1.019l3.568,-13.761c0,0 -3.058,-1.529 -9.174,-1.529c-6.116,0 -12.232,1.529 -16.819,5.606c-6.116,5.097 -8.664,12.232 -10.193,19.367l-0.51,3.058l-8.155,0l-2.548,13.251l8.155,0l-9.174,48.418l17.329,0l9.174,-48.418l11.722,0l2.548,-12.742Zm41.283,0c0,0 -10.703,27.012 -15.8,41.793c-0.51,-4.587 -4.077,-41.793 -4.077,-41.793l-18.348,0l10.193,56.063c0,1.019 0,2.039 -0.51,3.058c-2.039,4.077 -5.606,7.645 -9.174,10.193c-3.058,2.548 -7.135,4.077 -9.684,5.097l4.587,14.78c3.568,-0.51 10.703,-3.568 16.819,-9.174c7.645,-7.135 15.29,-18.858 22.425,-34.148l20.896,-45.36l-17.329,-0.51Z" style="fill:#1a1919;fill-rule:nonzero;"/></g></g></g><defs><linearGradient id="_Linear2" x1="0" y1="0" x2="1" y2="0" gradientUnits="userSpaceOnUse" gradientTransform="matrix(0,1081,-1081,0,540.301421,-2)"><stop offset="0" style="stop-color:#71e8ca;stop-opacity:1"/><stop offset="1" style="stop-color:#97ec87;stop-opacity:1"/></linearGradient></defs></svg>