<?xml version="1.0" encoding="UTF-8" standalone="no"?><!DOCTYPE svg PUBLIC "-//W3C//DTD SVG 1.1//EN" "http://www.w3.org/Graphics/SVG/1.1/DTD/svg11.dtd"><svg width="100%" height="100%" viewBox="0 0 311 163" version="1.1" xmlns="http://www.w3.org/2000/svg" xmlns:xlink="http://www.w3.org/1999/xlink" xml:space="preserve" xmlns:serif="http://www.serif.com/" style="fill-rule:evenodd;clip-rule:evenodd;stroke-linejoin:round;stroke-miterlimit:2;"><rect id="ltk" x="0" y="0" width="310.155" height="162.224" style="fill:none;"/><clipPath id="_clip1"><rect x="0" y="0" width="310.155" height="162.224"/></clipPath><g clip-path="url(#_clip1)"><g id="ltk1" serif:id="ltk"><path d="M0.628,161.829c-0.09,-0.23 -0.488,-0.36 -0.615,-1.581c-0.013,-0.122 -0.013,-2.79 -0.013,-3.032c-0,-154.95 0.001,-154.929 0.008,-155.026c0.206,-2.678 2.317,-2.147 5.293,-2.146c287.517,0.007 287.51,-0.081 302.002,-0c1.378,0.008 1.556,-0.226 2.421,0.871c0.102,0.13 0.272,0.22 0.323,0.377c0.111,0.348 0.099,0.351 0.099,149.925c0,9.474 0.112,9.591 -0.512,10.284c-0.148,0.165 -0.231,0.406 -0.426,0.51c-0.401,0.214 -3.594,0.214 -3.907,0.214c-17.054,-0.001 -302.885,0.003 -303,-0.002c-1.35,-0.064 -1.288,-0.302 -1.673,-0.392Z" style="fill:#353a40;"/><path d="M203.194,91.216l0,-15c-0,-9.53 -0.149,-9.7 0.686,-10.455c0.726,-0.657 1.899,-0.542 2.421,-0.544c3.359,-0.011 4.567,-0.357 4.587,3.004c0.055,9.144 -0.279,9.138 -0.216,9.93c0.004,0.054 0.647,0.861 0.712,0.891c1.131,0.519 1.005,-0.257 3.681,-3.049c0.469,-0.49 2.891,-3.017 5.852,-6.139c3.499,-3.689 3.841,-4.532 6.384,-4.624c0.322,-0.012 4.022,-0.145 4.028,-0.145c2.951,0.063 0.539,2.272 0.395,2.403c-1.32,1.209 -7.802,8.357 -7.813,8.368c-2.861,3.074 -4.061,3.598 -1.735,6.459c4.295,5.28 4.117,5.399 8.43,10.651c2.444,2.976 2.892,3.091 2.783,4.282c-0.076,0.822 -0.275,0.801 -1.115,0.81c-5.522,0.059 -6.507,-0.531 -6.99,-0.82c-0.484,-0.289 -0.486,-0.306 -4.594,-5.339c-4.395,-5.384 -4.995,-7.321 -7.466,-4.76c-2.232,2.313 -2.332,2.458 -2.335,6.077c-0,0.329 -0.003,3.577 -0.49,4.084c-0.284,0.295 -0.79,0.823 -5.077,0.636c-0.681,-0.03 -0.721,0.057 -1.263,-0.373c-1.126,-0.894 -0.864,-2.102 -0.865,-6.347Z" style="fill:#fbfbfb;"/><path d="M184.956,75.216c0.001,20.849 0.002,20.848 -0.024,20.955c-0.433,1.789 -0.798,1.761 -2.635,1.775c-1.997,0.016 -3.563,0.121 -4.222,-0.438c-0.949,-0.806 -0.793,-1.02 -0.793,-12.292c-0,-12.026 0.223,-13.162 -1.113,-13.621c-1.276,-0.439 -7.491,0.302 -8.587,-0.667c-0.773,-0.683 -1.298,-5.109 0.743,-5.617c0.482,-0.12 0.487,-0.089 22.976,-0.092c2.243,-0 4.504,-0.61 4.128,4.009c-0.225,2.767 -2.431,2.206 -7.128,2.211c-0.155,0 -1.728,0.002 -1.931,0.081c-1.732,0.676 -1.394,2.628 -1.415,3.697Z" style="fill:#fcfcfc;"/><path d="M147.301,97.945c-2.386,-0 -4.659,0.188 -5.127,-0.602c-0.728,-1.229 -0.599,-1.313 -0.599,-10.127c0,-20.497 -0.068,-20.609 0.452,-21.207c0.28,-0.322 1.087,-1.25 5.273,-0.776c2.411,0.273 1.877,3.168 1.877,4.983c-0,20.039 -0.069,20.147 0.447,20.773c0.951,1.155 8.939,0.497 13.661,0.658c2.318,0.079 2.458,1.48 2.402,3.581c-0.084,3.145 -1.244,2.715 -4.385,2.717c-4.667,-0 -9.333,-0 -14,-0Z" style="fill:#f8f8f8;"/><path d="M92.195,79.216c0.056,-4.369 0.654,-4.358 3.974,-7.178c3.33,-2.829 6.166,5.832 9.295,3.435c3.848,-2.947 4.461,-5.614 7.526,-2.902c3.302,2.922 3.306,3.226 3.208,7.643c-0.071,3.185 -0.758,3.053 -6.598,8.333c-2.22,2.007 -4.088,4.07 -5.289,4.095c-0.766,0.016 -0.913,0.061 -8.034,-6.4c-3.186,-2.89 -3.985,-2.733 -4.082,-7.027Z" style="fill:#fdfdfd;"/><path d="M131.949,86.155c-0.215,1.048 -1.511,7.355 -5.45,12.217c-0.251,0.31 -2.333,3.077 -3.164,3.146c-1.034,0.086 -1.079,-0.105 -1.416,-1.101c-0.14,-0.412 -0.034,-0.426 -1.413,-5.255c-1.549,-5.422 3.178,-5.321 2.795,-14.946c-0.138,-3.469 1.58,-2.59 4.921,-1.686c3.513,0.95 4.441,1.022 4.104,4.688c-0.022,0.236 -0.028,0.218 -0.376,2.937Z" style="fill:#fcfcfc;"/><path d="M90.129,60.261c-0.152,-0.694 -1.321,-2.85 1.099,-4.17c9.318,-5.083 19.539,-2.514 20.276,-2.27c1.01,0.335 1.213,0.366 1.149,1.424c-0.052,0.858 -0.315,0.721 -0.941,1.299c-0.496,0.459 -2.372,2.454 -4.072,4.041c-3.146,2.936 -6.14,-0.379 -13.54,4.281c-0.175,0.11 -1.744,1.098 -2.578,0.194c-0.18,-0.195 -0.984,-3.334 -1.393,-4.798Z" style="fill:#fbfbfb;"/><path d="M78.289,92.221c-0.157,-0.408 -1.893,-3.975 -0.994,-5.01c0.76,-0.875 0.939,-0.502 2.041,-0.181c0.244,0.071 2.028,0.591 3.053,0.878c0.619,0.173 1.25,0.305 1.868,0.483c2.424,0.696 2.371,0.916 3.825,2.971c5.686,8.034 9,5.792 8.77,8.658c-0.011,0.135 -3.047,3.162 -3.318,3.431c-2.009,2.002 -2.66,2.921 -6.406,-0.003c-6.06,-4.73 -7.754,-9.013 -8.839,-11.227Z" style="fill:#fcfcfc;"/><path d="M76.079,79.207c0.04,-0.525 -0.103,-1.78 1.051,-6.041c1.861,-6.872 7.359,-12.449 7.451,-12.474c0.92,-0.255 1.537,0.486 1.626,0.593c0.321,0.386 0.195,0.425 1.711,6.032c0.95,3.513 -0.459,3.82 -1.599,6.905c-1.661,4.496 -1.254,7.758 -1.259,7.984c-0.021,1.061 0.084,1.221 -0.849,1.705c-0.351,0.182 -0.42,0.217 -4.841,-0.98c-3.759,-1.018 -3.105,-1.981 -3.291,-3.725Z" style="fill:#fcfdfd;"/><path d="M101.318,109.049c-0.397,-0.042 -4.358,-0.464 -4.886,-0.991c-0.923,-0.922 0.273,-2.044 0.401,-2.165c1.015,-0.952 1.938,-1.875 2.104,-2.041c3.008,-3.009 2.951,-3.454 6.363,-3.661c0.654,-0.04 4.323,-0.262 7.893,-2.188c1.778,-0.959 1.749,-1.783 3.269,-1.019c1.131,0.568 0.61,0.922 0.95,2.199c1.121,4.216 2.214,5.772 -0.992,7.276c-6.55,3.071 -11.306,2.815 -15.101,2.592Z" style="fill:#fbfbfc;"/><path d="M129.935,69.38c0.441,1.119 1.685,3.707 1.413,4.858c-0.329,1.393 -3.27,0.113 -4.036,-0.067c-0.427,-0.101 -4.546,-1.07 -5.254,-1.569c-2.541,-1.79 -1.554,-3.682 -7.567,-7.689c-0.487,-0.325 -2.224,-1.165 -2.354,-1.609c-0.421,-1.433 0.535,-1.967 2.914,-4.341c1.966,-1.962 2.567,-3.183 6.074,-0.513c2.025,1.541 6.172,5.448 8.218,9.743c0.295,0.618 0.295,0.59 0.592,1.186Z" style="fill:#fdfdfd;"/></g></g></svg>