<?xml version="1.0" encoding="UTF-8" standalone="no"?><!DOCTYPE svg PUBLIC "-//W3C//DTD SVG 1.1//EN" "http://www.w3.org/Graphics/SVG/1.1/DTD/svg11.dtd"><svg width="100%" height="100%" viewBox="0 0 969 341" version="1.1" xmlns="http://www.w3.org/2000/svg" xmlns:xlink="http://www.w3.org/1999/xlink" xml:space="preserve" xmlns:serif="http://www.serif.com/" style="fill-rule:evenodd;clip-rule:evenodd;stroke-linejoin:round;stroke-miterlimit:2;"><rect id="videoshops" x="0" y="0" width="968.801" height="341" style="fill:none;"/><g id="videoshops1" serif:id="videoshops"><path d="M218.814,128.397c0.913,-0.207 6.499,-1.473 11.628,-1.33c11.953,0.333 16.275,4.958 17.872,3.217c0.494,-0.539 0.38,-0.663 0.39,-27.437c0.003,-9.327 -0.114,-9.414 0.672,-10.735c0.41,-0.689 0.623,-0.658 17.087,-0.671c4.159,-0.003 6.266,-0.596 6.38,2.928c0.026,0.812 0.009,64.338 0.008,69.933c-0.001,5.015 1.282,19.431 -8.878,32.563c-13.275,17.159 -34.292,19.881 -48.294,14.898c-14.337,-5.103 -20.321,-13.973 -22.691,-17.557c-11.199,-16.943 -6.065,-34.45 -4.586,-38.253c8.596,-22.101 26.776,-26.489 30.413,-27.555Z" style="fill:#1e2631;"/><path d="M760.173,128.042c12.053,-2.393 19.787,-0.094 26.767,2.892c23.822,10.192 35.31,42.016 16.224,66.872c-9.109,11.863 -29.56,21.189 -49.365,13.285c-1.728,-0.69 -1.939,-1.633 -3.277,-0.346c-0.136,0.13 -0.368,0.177 -0.443,0.349c-0.161,0.367 -0.063,17.71 -0.081,33.734c-0.004,3.683 0.115,4.885 -3.55,4.793c-7.803,-0.197 -18.043,0.149 -19.203,-0.23c-1.661,-0.543 -1.389,-2.498 -1.38,-9.861c0.069,-54.609 -0.21,-70.118 0.279,-74.191c0.226,-1.881 1.487,-12.38 9.098,-21.865c10.161,-12.663 24.016,-15.205 24.932,-15.433Z" style="fill:#1e2631;"/><path d="M687.06,128.471c6.497,1.973 18.582,5.943 27.201,21.214c7.695,13.635 8.808,37.278 -9.413,53.501c-11.008,9.801 -31.777,16.527 -51.955,4.008c-22.059,-13.686 -27.682,-45.536 -8.399,-66.422c6.146,-6.657 13.737,-9.77 15.091,-10.325c12.93,-5.302 22.36,-3.165 27.475,-1.977Z" style="fill:#1e2631;"/><path d="M406.414,128.583c0.667,-0.15 1.323,-0.347 1.99,-0.497c1.572,-0.352 10.624,-2.382 20.129,0.359c9.999,2.884 15.054,7.11 16.161,8.036c5.096,4.26 6.534,6.217 9.104,9.946c9.245,13.414 8.131,28.875 5.171,37.894c-3.945,12.019 -13.33,19.857 -15.547,21.318c-5.189,3.421 -20.396,13.363 -41.368,5.368c-27.087,-10.327 -35.598,-43.508 -19.774,-65.552c8.185,-11.402 17.445,-14.717 24.134,-16.872Z" style="fill:#1e2631;"/><path d="M598.153,128.08c19.743,5.184 24.886,18.047 26.234,21.466c2.803,7.112 2.247,9.264 2.299,42.304c0.031,19.668 -0.113,19.673 -0.258,19.99c-0.641,1.399 -1.137,1.121 -17.724,1.125c-3.766,0.001 -5.735,0.635 -5.797,-3.087c-0.439,-26.369 0.832,-42.546 -0.977,-47.548c-4.553,-12.589 -20.402,-13.947 -27.735,-6.074c-4.396,4.719 -4.665,10.251 -4.712,11.223c-0.227,4.671 0.296,42.956 -0.312,44.347c-0.594,1.359 -1.071,1.141 -15.564,1.142c-5.702,0.001 -7.642,0.663 -7.668,-3.1c-0.018,-2.564 -0.002,-108.75 -0.009,-114.441c-0.002,-1.355 -0.342,-3.87 2.396,-3.971c4.621,-0.17 16.552,-0.029 17.991,-0.012c3.638,0.043 3.151,1.404 3.159,5.044c0.062,30.494 -0.136,33.457 0.118,33.859c0.143,0.227 1.519,0.757 1.888,0.681c1.282,-0.264 8.686,-6.9 26.672,-2.948Z" style="fill:#1e2631;"/><path d="M338.513,178.015c-2.544,-0.001 -31.658,-0.013 -31.797,-0.004c-0.911,0.057 -0.946,0.096 -1.497,0.829c-1.152,1.534 2.211,6.563 2.375,6.785c0.708,0.961 4.709,6.384 12.863,7.559c10.806,1.557 15.741,-4.537 16.364,-5.147c2.662,-2.611 3.066,-2.186 11.228,-2.18c14.294,0.011 14.623,-0.17 14.917,0.633c0.562,1.539 0.262,1.591 -0.53,3.021c-8.473,15.304 -18.442,19.274 -21.609,20.779c-17.229,8.188 -39.386,2.446 -51.441,-12.844c-14.869,-18.859 -10.278,-44.02 3.537,-57.542c19.77,-19.35 47.044,-14.756 61.582,-0.067c13.627,13.768 13.333,34.319 11.679,37.271c-0.622,1.109 -1.01,0.886 -27.671,0.909Z" style="fill:#1f2631;"/><path d="M493.288,177.731c-9.984,-2.592 -24.601,-6.104 -25.795,-21.885c-1.53,-20.203 14.093,-25.906 16.079,-26.747c20.41,-8.638 49.121,3.293 50.116,5.397c0.563,1.19 0.391,1.839 -1.636,6.332c-3.947,8.75 -3.901,8.763 -4.269,9.511c-1.381,2.808 -2.245,1.936 -5.121,0.695c-11.537,-4.98 -30.209,-7.966 -31.862,-0.576c-1.403,6.273 8.732,7.629 15.046,8.933c20.657,4.267 30.289,11.015 31.509,24.02c2.196,23.416 -20.314,32.586 -43.045,30.274c-11.555,-1.175 -22.376,-5.81 -26.591,-7.957c-2.711,-1.38 -1.889,-2.924 0.757,-8.741c0.256,-0.563 0.252,-0.563 3.621,-8.278c0.085,-0.194 0.707,-1.618 2.026,-1.696c0.888,-0.052 11.837,5.791 22.306,6.516c7.558,0.523 16.701,0.806 18.031,-4.846c1.796,-7.632 -8.98,-8.435 -21.172,-10.955Z" style="fill:#1f2631;"/><path d="M843.998,177.771c-14.794,-3.576 -24.776,-8.166 -25.86,-21.915c-1.578,-20.019 13.853,-25.753 13.964,-25.81c18.666,-9.556 45.474,0.335 51.047,3.503c0.176,0.1 1.345,0.764 1.322,2.151c-0.016,0.944 -5.287,12.636 -5.775,13.673c-0.282,0.601 -0.92,2.825 -3.035,2.651c-1.657,-0.137 -10.401,-5.836 -25.376,-5.942c-0.853,-0.006 -9.437,-0.066 -9.126,5.504c0.192,3.442 3.419,4.541 3.621,4.649c6.807,3.632 30.053,3.883 39.329,16.604c7.704,10.565 6.447,34.684 -21.124,40.117c-18.963,3.736 -36.013,-3.555 -36.203,-3.623c-7.129,-2.549 -10.341,-4.067 -10.349,-5.826c-0.005,-1.146 0.271,-1.071 1.163,-3.108c1.619,-3.7 1.621,-3.682 3.199,-7.414c2.086,-4.934 2.084,-7.013 6.1,-5.19c1.534,0.696 11.392,5.172 20.25,5.759c6.571,0.436 16.486,0.93 17.822,-4.921c1.744,-7.638 -9.427,-8.468 -20.967,-10.862Z" style="fill:#1f2631;"/><path d="M101.306,182.212c0.295,0.125 0.591,0.25 0.886,0.375c0.256,-0.069 0.477,0.378 0.733,0.309c0.263,-0.071 1.325,-4.581 3.733,-11.109c5.611,-15.204 14.194,-41.289 15.442,-42.677c1.004,-1.117 1.24,-1.006 17.213,-1.003c4.492,0.001 7.099,-0.382 7.228,1.259c0.062,0.793 -0.025,0.786 -3.325,9.376c-0.491,1.278 -0.586,1.226 -6.309,15.909c-0.864,2.216 -2.221,5.112 -6.784,17.199c-0.578,1.532 -0.605,1.501 -7.436,19.064c-5.001,12.857 -6.184,14.446 -6.997,15.54c-6.734,9.049 -21.236,8.696 -27.377,-0.734c-3.437,-5.277 -4.151,-9.215 -16.601,-40.441c-2.64,-6.621 -2.471,-6.671 -6.605,-16.857c-2.33,-5.741 -2.137,-5.801 -6.589,-16.869c-0.436,-1.083 -0.718,-1.029 -0.607,-2.188c0.144,-1.507 0.97,-1.254 12.531,-1.257c10.855,-0.003 11.721,-0.416 12.738,2.277c1.636,4.33 8.637,24.419 9.378,26.545c4.021,11.537 4.09,11.495 8.04,23.058c0.38,1.111 0.381,1.084 0.708,2.223Z" style="fill:#1f2631;"/><path d="M166.863,128.131c4.263,0.002 4.239,-0.026 8.479,-0c0.778,0.005 3.119,-0.295 3.311,2.251c0.035,0.469 0.013,79.456 0.013,79.485c-0.044,3.349 -1.413,3.143 -4.386,3.13c-17.445,-0.079 -19.077,0.418 -19.637,-1.192c-0.19,-0.547 -0.167,-0.562 -0.167,-46.443c0,-35.625 -0.047,-35.711 0.374,-36.25c0.916,-1.172 1.187,-0.965 12.012,-0.98Z" style="fill:#1f2731;"/><path d="M689.017,156.066c12.636,12.523 4.508,27.8 -3.997,31.601c-21.89,9.781 -37.898,-17.063 -21.27,-31.902c5.064,-4.52 16.25,-7.361 25.267,0.302Z" style="fill:#fbfcfb;"/><path d="M755.913,183.447c-0.014,-0.014 -2.127,-1.707 -3.958,-5.473c-0.932,-1.916 -1.793,-5.078 -1.906,-7.341c-0.328,-6.585 2.749,-11.144 3.304,-11.967c0.867,-1.285 6.227,-9.228 17.482,-8.369c16.65,1.271 23.195,21.561 12.315,32.698c-5.518,5.648 -17.263,9.381 -27.238,0.453Z" style="fill:#fbfbfb;"/><path d="M210.145,171.73c-0.004,-2.135 -0.126,-2.127 0.231,-4.237c2.053,-12.135 13.826,-18.38 24.198,-15.519c13.322,3.675 16.831,18.576 12.058,27.312c-8.418,15.406 -27.406,11.802 -33.23,2.023c-2.839,-4.767 -2.868,-6.552 -3.257,-9.578Z" style="fill:#fbfcfb;"/><path d="M427.279,162.581c3.862,2.409 3.922,2.263 7.801,4.647c0.359,0.221 6.595,3.187 1.155,6.973c-0.438,0.305 -25.789,15.429 -27.631,16.003c-5.339,1.664 -4.418,-5.988 -4.418,-6.83c0.011,-29.157 -0.26,-29.462 1.04,-30.766c2.136,-2.144 5.623,0.41 9.794,2.842c6.134,3.577 6.106,3.599 12.258,7.131Z" style="fill:#fafbfa;"/><path d="M155.162,112.413c-6.301,-10.377 2.611,-17.656 3.2,-18.074c11.194,-7.949 24.038,2.073 21.473,13.866c-1.86,8.555 -11.608,12.809 -19.168,9.139c-2.763,-1.342 -5.146,-4.461 -5.505,-4.93Z" style="fill:#202732;"/><path d="M316.263,161.48c-8.96,0.002 -9.993,0.137 -10.511,-0.444c-1.331,-1.492 2.583,-8.768 9.396,-11.69c11.762,-5.045 23.634,1.859 26.361,9.713c0.812,2.339 -1.635,2.429 -1.881,2.438c-1.791,0.066 -1.774,-0.025 -23.365,-0.017Z" style="fill:#fafafa;"/><path d="M677.502,145.119c-0.188,0.372 -0.255,0.798 -0.443,1.17c-0.088,0.173 -0.826,1.635 -1.602,1.826c-0.614,0.151 -1.04,-0.86 -3.179,-0.666c-3.718,0.338 -4.347,-0.733 -6.421,-0.333c-1.18,0.228 -1.189,0.706 -1.396,0.834c-0.282,0.176 -0.3,0.111 -2.792,0.436c-2.774,0.362 -3.935,0.556 -4.509,-0.987c-0.408,-1.099 -0.262,-1.142 0.28,-2.173c0.097,-0.185 0.561,-1.067 2.091,-1.555c1.145,-0.366 2.23,0.539 5.347,0.389c1.729,-0.083 1.829,0.244 2.164,0.255c0.335,0.011 0.65,-0.243 0.984,-0.209c0.468,0.048 0.87,0.423 1.34,0.447c0.298,0.015 0.556,-0.216 0.828,-0.338c0.312,-0.14 0.597,-0.342 0.922,-0.447c1.145,-0.369 1.135,-0.017 2.276,0.345c0.61,0.194 1.282,0.185 1.871,0.435c0.213,0.091 0.232,0.427 0.433,0.544c0.232,0.135 0.519,0.162 0.788,0.166c0.343,0.005 0.677,-0.143 1.02,-0.138Z" style="fill:#1c252f;"/><path d="M902.211,127.17c0.387,0.266 0.438,0.141 0.834,0.413c0.041,0.028 0.103,0.071 0.424,0.45c0.999,1.182 0.881,2.249 1.916,2.358c1.323,0.14 1.49,0.098 2.063,-1.093c0.112,-0.233 1.389,-2.892 2.812,-1.591c0.573,0.523 0.904,6.366 0.422,6.928c-1.09,1.271 -1.339,0.322 -3.141,-0.331c-0.243,-0.088 -2.212,-0.488 -4.228,0.424c-1.14,0.516 -1.375,0.884 -2.132,-0.123c-0.282,-0.374 -0.201,-1.908 -0.193,-2.074c0.154,-2.933 0.034,-2.94 0.101,-3.186c0.075,-0.272 0.391,-0.416 0.52,-0.666c0.248,-0.481 0.353,-1.027 0.601,-1.507Z" style="fill:#62656b;"/><path d="M898.971,127.647c0.008,0.072 0.188,0.025 0.196,0.097c0.014,0.127 0.078,0.711 -0.01,1.595c-0.097,0.969 -0.842,1.241 -0.859,1.268c-0.228,0.371 -0.19,3.646 -0.232,3.992c-0.29,2.417 -1.754,1.672 -1.932,1.582c-1.037,-0.528 -0.904,-4.833 -0.93,-4.945c-0.189,-0.797 -0.382,-0.666 -1.069,-1.278c-0.206,-0.184 -0.453,-0.38 -0.515,-0.648c-0.384,-1.654 1.003,-1.355 5.353,-1.664Z" style="fill:#676a6e;"/><path d="M687.233,147.295c0.27,-0.302 0.209,-0.815 0.479,-1.118c0.129,-0.144 0.294,0.056 1.827,-1.581c0.128,-0.137 1.246,-1.331 2.348,0.017c0.459,0.561 0.22,2.211 0.198,2.252c-0.15,0.277 -0.464,0.431 -0.656,0.681c-0.073,0.094 -0.022,0.276 -0.125,0.334c-1.029,0.58 -3.242,0.47 -3.697,0.088c-0.196,-0.165 -0.177,-0.507 -0.373,-0.672Z" style="fill:#1d252e;"/></g></svg>